name GIL12_xslow1.mot
datacolumns 153
datarows 4
range 1.44166672 1.46666682
endheader

                time	           pelvis_tx	           pelvis_ty	           pelvis_tz	         pelvis_tilt	         pelvis_list	     pelvis_rotation	       hip_flexion_r	     hip_adduction_r	      hip_rotation_r	        knee_angle_r	       ankle_angle_r	    subtalar_angle_r	         mtp_angle_r	       hip_flexion_l	     hip_adduction_l	      hip_rotation_l	        knee_angle_l	       ankle_angle_l	    subtalar_angle_l	         mtp_angle_l	    lumbar_extension	      lumbar_bending	     lumbar_rotation	     ground_force_vx	     ground_force_vy	     ground_force_vz	     ground_force_px	     ground_force_py	     ground_force_pz	     ground_force_vx	     ground_force_vy	     ground_force_vz	     ground_force_px	     ground_force_py	     ground_force_pz	     ground_torque_x	     ground_torque_y	     ground_torque_z	     ground_torque_x	     ground_torque_y	     ground_torque_z	    ground_marker_px	    ground_marker_py	    ground_marker_pz	    ground_marker_px	    ground_marker_py	    ground_marker_pz	    ground_marker_px	    ground_marker_py	    ground_marker_pz	    ground_marker_px	    ground_marker_py	    ground_marker_pz	    ground_marker_px	    ground_marker_py	    ground_marker_pz	    ground_marker_px	    ground_marker_py	    ground_marker_pz	    ground_marker_px	    ground_marker_py	    ground_marker_pz	    ground_marker_px	    ground_marker_py	    ground_marker_pz	    ground_marker_px	    ground_marker_py	    ground_marker_pz	    ground_marker_px	    ground_marker_py	    ground_marker_pz	    ground_marker_px	    ground_marker_py	    ground_marker_pz	    ground_marker_px	    ground_marker_py	    ground_marker_pz	    ground_marker_px	    ground_marker_py	    ground_marker_pz	    ground_marker_px	    ground_marker_py	    ground_marker_pz	    ground_marker_px	    ground_marker_py	    ground_marker_pz	    ground_marker_px	    ground_marker_py	    ground_marker_pz	    ground_marker_px	    ground_marker_py	    ground_marker_pz	    ground_marker_px	    ground_marker_py	    ground_marker_pz	    ground_marker_px	    ground_marker_py	    ground_marker_pz	    ground_marker_px	    ground_marker_py	    ground_marker_pz	    ground_marker_px	    ground_marker_py	    ground_marker_pz	    ground_marker_px	    ground_marker_py	    ground_marker_pz	    ground_marker_px	    ground_marker_py	    ground_marker_pz	    ground_marker_px	    ground_marker_py	    ground_marker_pz	    ground_marker_px	    ground_marker_py	    ground_marker_pz	    ground_marker_px	    ground_marker_py	    ground_marker_pz	    ground_marker_px	    ground_marker_py	    ground_marker_pz	    ground_marker_px	    ground_marker_py	    ground_marker_pz	    ground_marker_px	    ground_marker_py	    ground_marker_pz	    ground_marker_px	    ground_marker_py	    ground_marker_pz	    ground_marker_px	    ground_marker_py	    ground_marker_pz	    ground_marker_px	    ground_marker_py	    ground_marker_pz	    ground_marker_px	    ground_marker_py	    ground_marker_pz	    ground_marker_px	    ground_marker_py	    ground_marker_pz	    ground_marker_px	    ground_marker_py	    ground_marker_pz	    ground_marker_px	    ground_marker_py	    ground_marker_pz	    ground_marker_px	    ground_marker_py	    ground_marker_pz	
          1.44166672	          2.07842970	          0.71008766	         -0.16610822	          4.86008167	          4.60443592	          2.77983284	        -10.04343796	         -4.95536232	         -7.67156839	         -4.52236557	          8.42528343	          0.00000000	          0.00000000	          3.28300858	          2.01009321	         -6.04093361	        -25.25411415	          4.09309483	          0.00000000	          0.00000000	        -17.50849915	         -0.21421923	          0.23010920	          1.46638995	        253.42471460	        -15.24546076	          2.00835242	          0.00000000	         -0.10785091	          0.00000000	          0.00000000	          0.00000000	          1.68400134	          0.00000000	         -0.17279163	          0.00000000	          0.46544482	          0.00000000	          0.00000000	          0.00000000	          0.00000000	          2.02721930	          0.63566464	         -0.16764925	          2.03662205	          0.64304304	         -0.11128749	          2.03214073	          0.65309489	         -0.22821566	          2.01054931	          0.34217414	         -0.10995091	          2.07665133	          0.34573677	         -0.24538586	          1.96228456	          0.05402778	         -0.10773997	          1.99314308	          0.07321763	         -0.25258547	          2.07842970	          0.71008766	         -0.16610822	          2.08180809	          0.70250952	         -0.07795529	          2.07505131	          0.71766585	         -0.25426114	          1.94222796	          0.72683990	         -0.11801932	          1.94297612	          0.72654921	         -0.20415615	          2.00652504	          0.34272641	         -0.06413059	          2.07007194	          0.34743842	         -0.29290235	          2.00033307	          0.34233931	         -0.15315700	          2.08763146	          0.34467900	         -0.20534916	          1.96034229	          0.05460969	         -0.07430138	          1.97569299	          0.07927133	         -0.27932686	          1.96418798	          0.05580190	         -0.13470924	          1.99903202	          0.07242584	         -0.21844095	          1.99827552	          1.04377794	         -0.13751210	          2.09415936	          0.97405201	         -0.10257836	          2.09022069	          0.98165751	         -0.19405773	          2.07760358	          0.98984104	         -0.13898456	          2.12244749	          0.85631388	         -0.15713936	          2.13531494	          0.41910639	         -0.12381511	          2.11805820	          0.44423294	         -0.35466239	          2.07007074	          0.47807097	         -0.08352503	          2.11693764	          0.49292737	         -0.26821649	          2.04511380	          0.39336389	         -0.08092099	          2.12710476	          0.40886289	         -0.25581929	          2.00340128	          0.12775047	         -0.00939867	          2.11436820	          0.14644462	         -0.25622407	          1.99288774	          0.19574295	         -0.06743080	          2.07125068	          0.21789877	         -0.25691268	          2.05097675	          0.03997968	         -0.10640322	          2.06398964	          0.04164352	         -0.27733198	
          1.45000005	          2.08273458	          0.70977569	         -0.16667402	          4.93268013	          4.69604540	          2.70751500	        -10.61546898	         -5.09557056	         -7.68451834	         -4.32019806	          8.59964561	          0.00000000	          0.00000000	          3.95065403	          2.08364701	         -5.72142649	        -23.92217445	          3.94476104	          0.00000000	          0.00000000	        -17.62664986	         -0.39060870	          0.25750858	          1.93447868	        252.61142890	        -15.63757424	          2.01181763	          0.00000000	         -0.10734625	          0.00000000	          0.00000000	          0.00000000	          1.68438477	          0.00000000	         -0.17259744	          0.00000000	          0.45276880	          0.00000000	          0.00000000	          0.00000000	          0.00000000	          2.03161073	          0.63528985	         -0.16840743	          2.04092574	          0.64260405	         -0.11200979	          2.03660178	          0.65281814	         -0.22892985	          2.01224279	          0.34193239	         -0.11026854	          2.08509803	          0.34599581	         -0.24616490	          1.96252298	          0.05408260	         -0.10783576	          2.01121354	          0.07056089	         -0.25627697	          2.08273458	          0.70977569	         -0.16667402	          2.08599448	          0.70207518	         -0.07852631	          2.07947469	          0.71747625	         -0.25482172	          1.94642878	          0.72635376	         -0.11878562	          1.94731009	          0.72608429	         -0.20487589	          2.00819683	          0.34258369	         -0.06445144	          2.07888532	          0.34768569	         -0.29373109	          2.00212789	          0.34195694	         -0.15321590	          2.09476757	          0.34484804	         -0.20573001	          1.96047127	          0.05471952	         -0.07440471	          1.99397945	          0.07617431	         -0.28325328	          1.96428120	          0.05578430	         -0.13477212	          2.01647878	          0.06966893	         -0.22209185	          2.00246024	          1.04349804	         -0.13846815	          2.09834886	          0.97371000	         -0.10345228	          2.09443021	          0.98117614	         -0.19494185	          2.08181167	          0.98946553	         -0.13987941	          2.12655497	          0.85586548	         -0.15782471	          2.13779378	          0.41780078	         -0.12417897	          2.12597013	          0.44516021	         -0.35458148	          2.07285666	          0.47725943	         -0.08390980	          2.12289715	          0.49360546	         -0.26779434	          2.04734159	          0.39288294	         -0.08111802	          2.13406110	          0.40977061	         -0.25546226	          2.00367594	          0.12769793	         -0.00945464	          2.12982225	          0.14828679	         -0.25756687	          1.99358141	          0.19566393	         -0.06749333	          2.08410859	          0.21811013	         -0.25833416	          2.05105591	          0.03987668	         -0.10629247	          2.08359981	          0.04136882	         -0.28005767	
          1.45833337	          2.08702040	          0.70944035	         -0.16724607	          4.99265385	          4.78690577	          2.61323166	        -11.15478420	         -5.23456001	         -7.71695900	         -4.14253950	          8.78970242	          0.00000000	          0.00000000	          4.61705589	          2.14178514	         -5.50082445	        -22.56258011	          3.54435253	          0.00000000	          0.00000000	        -17.58176994	         -0.56118774	          0.31294999	          2.42863980	        251.88736215	        -15.96926293	          2.01515649	          0.00000000	         -0.10686609	          0.00000000	          0.00000000	          0.00000000	          1.68474707	          0.00000000	         -0.17244098	          0.00000000	          0.44211401	          0.00000000	          0.00000000	          0.00000000	          0.00000000	          2.03598690	          0.63491195	         -0.16921039	          2.04517317	          0.64215559	         -0.11275034	          2.04105306	          0.65252632	         -0.22966394	          2.01397514	          0.34170115	         -0.11061767	          2.09344363	          0.34630430	         -0.24699207	          1.96275973	          0.05414976	         -0.10793162	          2.02935529	          0.06827130	         -0.26005125	          2.08702040	          0.70944035	         -0.16724607	          2.09012675	          0.70162135	         -0.07909925	          2.08391380	          0.71725935	         -0.25539291	          1.95063043	          0.72587961	         -0.11963179	          1.95168006	          0.72562593	         -0.20567811	          2.00987482	          0.34245208	         -0.06480694	          2.08753347	          0.34798694	         -0.29459709	          2.00423646	          0.34131870	         -0.15343058	          2.10199904	          0.34483609	         -0.20632163	          1.96059644	          0.05484728	         -0.07450882	          2.01233602	          0.07347168	         -0.28724590	          1.96425438	          0.05577841	         -0.13489391	          2.03383899	          0.06717637	         -0.22583669	          2.00638199	          1.04313266	         -0.13972887	          2.10258007	          0.97336292	         -0.10434796	          2.09867692	          0.98070300	         -0.19585654	          2.08606553	          0.98908508	         -0.14083564	          2.13097239	          0.85548788	         -0.15856028	          2.14027476	          0.41650334	         -0.12448135	          2.13362503	          0.44603124	         -0.35456455	          2.07521629	          0.47646973	         -0.08437436	          2.12861705	          0.49410480	         -0.26742294	          2.04951167	          0.39244035	         -0.08139786	          2.14090300	          0.41072869	         -0.25529313	          2.00394726	          0.12766455	         -0.00952586	          2.14511847	          0.15042713	         -0.25902313	          1.99426615	          0.19558334	         -0.06767337	          2.09687281	          0.21853292	         -0.25999454	          2.05113506	          0.03979918	         -0.10617115	          2.10309434	          0.04120066	         -0.28283623	
          1.46666682	          2.09130335	          0.70908141	         -0.16782612	          5.04147434	          4.87544918	          2.49591994	        -11.66521263	         -5.37035179	         -7.77044821	         -3.98826241	          9.00064087	          0.00000000	          0.00000000	          5.27443123	          2.17891526	         -5.38297129	        -21.16691399	          2.88252044	          0.00000000	          0.00000000	        -17.57579231	         -0.76000434	          0.39904761	          2.99059325	        251.40467880	        -16.25548891	          2.01833533	          0.00000000	         -0.10641084	          0.00000000	          0.00000000	          0.00000000	          1.68511719	          0.00000000	         -0.17228506	          0.00000000	          0.43319287	          0.00000000	          0.00000000	          0.00000000	          0.00000000	          2.04033709	          0.63452840	         -0.17003487	          2.04938149	          0.64169830	         -0.11350967	          2.04551291	          0.65221667	         -0.23041868	          2.01574922	          0.34147936	         -0.11100274	          2.10167074	          0.34665033	         -0.24788386	          1.96298945	          0.05423048	         -0.10803077	          2.04755688	          0.06635327	         -0.26386955	          2.09130335	          0.70908141	         -0.16782612	          2.09422016	          0.70115072	         -0.07967789	          2.08838630	          0.71701217	         -0.25597435	          1.95483303	          0.72541380	         -0.12055483	          1.95608628	          0.72517502	         -0.20656325	          2.01155949	          0.34233120	         -0.06520187	          2.09599590	          0.34833002	         -0.29551762	          2.00623226	          0.34101319	         -0.15384479	          2.10903811	          0.34508476	         -0.20686935	          1.96071386	          0.05499417	         -0.07461688	          2.03074956	          0.07116058	         -0.29126778	          1.96440828	          0.05582498	         -0.13501810	          2.05142546	          0.06507593	         -0.22967373	          2.01049805	          1.04275775	         -0.14099211	          2.10687971	          0.97304016	         -0.10530381	          2.10297203	          0.98021358	         -0.19683763	          2.09036136	          0.98870301	         -0.14185040	          2.13537645	          0.85509342	         -0.15930991	          2.14276600	          0.41521123	         -0.12472045	          2.14101458	          0.44683230	         -0.35463431	          2.07781696	          0.47582895	         -0.08485128	          2.13439798	          0.49471825	         -0.26741809	          2.05161476	          0.39204884	         -0.08178209	          2.14761686	          0.41164288	         -0.25530010	          2.00421691	          0.12765056	         -0.00961743	          2.16023993	          0.15287192	         -0.26056838	          1.99508643	          0.19556125	         -0.06795170	          2.10951924	          0.21918084	         -0.26186967	          2.05121827	          0.03975245	         -0.10604059	          2.12248588	          0.04111579	         -0.28562829	
